<svg width="18" height="18" viewBox="0 0 18 18" fill="none" xmlns="http://www.w3.org/2000/svg">
<path d="M15.2222 18H2.77778V16.2H15.2222V18ZM2.77778 5.4H15.2222V3.6H17V16.2H15.2222V7.2H2.77778V16.2H1V3.6H2.77778V5.4ZM6.33333 14.4H4.55556V12.6H6.33333V14.4ZM9.88889 14.4H8.11111V12.6H9.88889V14.4ZM6.33333 10.8H4.55556V9H6.33333V10.8ZM9.88889 10.8H8.11111V9H9.88889V10.8ZM13.4444 10.8H11.6667V9H13.4444V10.8ZM6.33333 1.8H11.6667V0H13.4444V1.8H15.2222V3.6H2.77778V1.8H4.55556V0H6.33333V1.8Z" fill="#BDBDBD"/>
</svg>
